<svg xmlns="http://www.w3.org/2000/svg" width="20" height="18" viewBox="0 0 49.712 44.395"><defs><style>.a{fill:#454FB4;}</style></defs><path class="a" d="M1158.809,267.068a13.266,13.266,0,0,0-12.951,1.391,17.238,17.238,0,0,1-.005,21.841,13.371,13.371,0,1,0,12.957-23.232Zm1.419,13.749h-.033a1.909,1.909,0,0,1-1.9-1.88,4.321,4.321,0,0,0-3.136-4.108,1.912,1.912,0,0,1,1.046-3.678,8.121,8.121,0,0,1,5.9,7.719A1.909,1.909,0,0,1,1160.228,280.817Zm-22.364-13.749a13.38,13.38,0,1,0,7,17.581A13.314,13.314,0,0,0,1137.864,267.068Zm1.418,13.749h-.033a1.91,1.91,0,0,1-1.9-1.88,4.375,4.375,0,0,0-3.136-4.107,1.912,1.912,0,0,1,1.046-3.678,8.121,8.121,0,0,1,5.9,7.72A1.909,1.909,0,0,1,1139.282,280.817Zm-1.963-20.157,5.445-5.892,5.448,5.892a1.9,1.9,0,0,0,2.692.1,1.918,1.918,0,0,0,.1-2.7l-6.843-7.4a1.958,1.958,0,0,0-2.792,0l-6.842,7.4a1.909,1.909,0,1,0,2.793,2.6Zm26.005-6.6a19.31,19.31,0,0,0-16.135-5.536l21.646,21.736A19.482,19.482,0,0,0,1163.324,254.057Z" transform="translate(-1119.273 -248.37)"/></svg>