<svg xmlns="http://www.w3.org/2000/svg" width="17.997" height="19.198" viewBox="0 0 17.997 19.198"><g transform="translate(-218.337 -212.101)"><path d="M263.53,216.275a1.538,1.538,0,0,0,.6,1.3,4.885,4.885,0,0,0,1.512.848,14.305,14.305,0,0,0,4.883.764c.345-.02.877-.038,1.406-.086a11.594,11.594,0,0,0,3.223-.716,4.787,4.787,0,0,0,1.413-.809,1.543,1.543,0,0,0,.6-1.3c-.022-.432-.021-.866,0-1.3a1.513,1.513,0,0,0-.572-1.247,4.822,4.822,0,0,0-1.563-.884,12.067,12.067,0,0,0-3.422-.7,14.971,14.971,0,0,0-5.45.524,5.452,5.452,0,0,0-2.049,1.042A1.523,1.523,0,0,0,263.53,215,12.166,12.166,0,0,1,263.53,216.275Z" transform="translate(-40.84)"/><path d="M333.789,327.37a5.347,5.347,0,0,0,2.025-1.042,1.517,1.517,0,0,0,.577-1.266c-.022-.432,0-.865,0-1.3,0-.06-.007-.119-.012-.191-.256.15-.487.3-.731.425a12.666,12.666,0,0,1-5.032,1.207,1.6,1.6,0,0,1,.088.524,1.751,1.751,0,0,1-.649,1.327l-1,.885A14.405,14.405,0,0,0,333.789,327.37Z" transform="translate(-100.059 -100.74)"/><path d="M298.131,366.524v-.56c-.269.157-.5.308-.744.432a12.794,12.794,0,0,1-5.13,1.212,16.963,16.963,0,0,1-2.893-.081l-.406.361-.941.837-.156.14c-.158.142-.321.288-.5.436a1.853,1.853,0,0,1-.639.34,12.217,12.217,0,0,0,3.36.664,14.931,14.931,0,0,0,5.468-.543,5.311,5.311,0,0,0,2-1.035,1.5,1.5,0,0,0,.577-1.266C298.115,367.15,298.131,366.836,298.131,366.524Z" transform="translate(-61.803 -139.05)"/><path d="M264.143,386.569c0,.014.008.028.013.042v-.047Z" transform="translate(-41.396 -157.667)"/><path d="M263.649,284.28a1.687,1.687,0,0,1,.983-1.366,8.323,8.323,0,0,1-1.063-.6c0,.514.006.994,0,1.474A1.307,1.307,0,0,0,263.649,284.28Z" transform="translate(-40.875 -63.458)"/><path d="M308.162,285.333a1.656,1.656,0,0,0,.846-1.145c.055-.56.012-1.129.012-1.712a.722.722,0,0,0-.086.041,8.553,8.553,0,0,1-2.948,1.21,16.879,16.879,0,0,1-5.767.3c-.484-.056-.962-.128-1.435-.224.68.6,1.362,1.2,2.026,1.793l.545.483.265.235.46.408a15.151,15.151,0,0,0,3.539-.363A7.114,7.114,0,0,0,308.162,285.333Z" transform="translate(-72.702 -63.6)"/><path d="M225.617,310.4l1.277-1.135,2.074-1.844c.177-.157.177-.19-.006-.352l-.384-.34-.948-.839-.825-.731q-1.123-1-2.249-1.989a.239.239,0,0,0-.145-.049.144.144,0,0,0-.044.006c-.037.012-.066.106-.067.164,0,.343,0,.687,0,1.03,0,.031,0,.062,0,.093,0,.232,0,.464,0,.7l-.1.009a5.226,5.226,0,0,0-1.121.188q-.2.055-.389.125a5.5,5.5,0,0,0-.994.483,6.5,6.5,0,0,0-2.615,3.2,11.286,11.286,0,0,0-.749,4.271c0,.079.015.145.106.157l.024,0c.088,0,.113-.074.135-.146a5.53,5.53,0,0,1,2.013-2.792,6.328,6.328,0,0,1,2.081-1.067q.225-.064.458-.109a5.453,5.453,0,0,1,.546-.078c.072-.007.145-.009.219-.009.126,0,.253.006.383.006,0,.066,0,.114,0,.163q0,.232,0,.464c0,.4,0,.805,0,1.208,0,.066.034.176.072.186a.128.128,0,0,0,.033,0,.3.3,0,0,0,.173-.067c.209-.173.409-.358.612-.539Z" transform="translate(0 -82.257)"/></g></svg>