<svg xmlns="http://www.w3.org/2000/svg" width="21.284" height="21.286" viewBox="0 0 21.284 21.286"><defs><style>.a{fill:#ff0;}</style></defs><g transform="translate(0 0)"><path class="a" d="M108.745,7.261a10.489,10.489,0,0,1-4.475-1.086,5.5,5.5,0,0,1-1.426-1.109,2.108,2.108,0,0,1-.01-2.946A4.676,4.676,0,0,1,104.891.724a10.38,10.38,0,0,1,8.2.244,5,5,0,0,1,1.43,1.04,2.163,2.163,0,0,1,.008,3.191,5.764,5.764,0,0,1-3.067,1.634C110.567,7.035,109.65,7.123,108.745,7.261Z" transform="translate(-93.944 0)"/><path class="a" d="M6.576,112.064a10.136,10.136,0,0,1,4.29.963,6.012,6.012,0,0,1,1.5,1.077,2.16,2.16,0,0,1,.017,3.19,5.642,5.642,0,0,1-2.714,1.543,10.753,10.753,0,0,1-6.883-.246,5.071,5.071,0,0,1-1.962-1.259,2.21,2.21,0,0,1-.006-3.26,6.129,6.129,0,0,1,3.351-1.685C4.962,112.224,5.774,112.168,6.576,112.064Z" transform="translate(-0.097 -102.973)"/><path class="a" d="M.059,207.647a4.407,4.407,0,0,0,2.947,2.443,10.668,10.668,0,0,0,6.964,0,4.42,4.42,0,0,0,2.951-2.434A2.673,2.673,0,0,1,12,210.39a6.822,6.822,0,0,1-3.33,1.479,10.41,10.41,0,0,1-6.531-.723,5.7,5.7,0,0,1-.9-.55A2.78,2.78,0,0,1,.059,207.647Z" transform="translate(0 -190.801)"/><path class="a" d="M.058,176.957c.893,1.792,2.523,2.382,4.279,2.748a10.52,10.52,0,0,0,4.98-.149,4.958,4.958,0,0,0,3.632-2.653,2.916,2.916,0,0,1-1.469,3.152,8.389,8.389,0,0,1-3.822,1.227,9.918,9.918,0,0,1-5.6-.926,5.989,5.989,0,0,1-1.218-.862A2.641,2.641,0,0,1,.058,176.957Z" transform="translate(-0.01 -162.552)"/><path class="a" d="M115.272,64.924a2.756,2.756,0,0,1-.869,2.641,6.64,6.64,0,0,1-2.989,1.457,10.778,10.778,0,0,1-4.9.048,3.681,3.681,0,0,1-.639-.236c-.545-.234-1.074-.509-1.63-.708a2.691,2.691,0,0,1-1.91-2.653c0-.175,0-.35,0-.529.035.008.071.006.077.018a4.693,4.693,0,0,0,3.315,2.5,10.746,10.746,0,0,0,6.654-.152A4.71,4.71,0,0,0,115.272,64.924Z" transform="translate(-94.034 -59.657)"/><path class="a" d="M167.824,97.678c.131.007.247.012.363.019a10.224,10.224,0,0,0,5.016-.832,3.931,3.931,0,0,0,2.229-2.189,2.778,2.778,0,0,1-.848,2.711,6.064,6.064,0,0,1-2.986,1.448c-.947.18-1.924.2-2.888.3-.232.022-.346-.063-.418-.313A10.535,10.535,0,0,0,167.824,97.678Z" transform="translate(-154.209 -86.995)"/><path class="a" d="M181.669,156.064a2.926,2.926,0,0,1-1.4,3.156,9.26,9.26,0,0,1-5.562,1.252c-.035-.391-.087-.788-.089-1.185,0-.063.224-.183.343-.181a9.9,9.9,0,0,0,3.319-.426,11.353,11.353,0,0,0,1.845-.811A3.271,3.271,0,0,0,181.669,156.064Z" transform="translate(-160.449 -143.403)"/><path class="a" d="M174.491,129.961c0-.365.008-.58,0-.794s-.038-.425-.064-.692c.15,0,.278,0,.406,0a10.138,10.138,0,0,0,4.347-.82,4,4,0,0,0,2.317-2.225,2.784,2.784,0,0,1-1.012,2.852,6.818,6.818,0,0,1-3.24,1.4C176.359,129.827,175.457,129.866,174.491,129.961Z" transform="translate(-160.274 -115.254)"/></g></svg>