<svg xmlns="http://www.w3.org/2000/svg" xmlns:xlink="http://www.w3.org/1999/xlink" width="23" height="23" viewBox="0 0 23 23"><defs><style>.a{fill:#3c2c63;}.b{clip-path:url(#a);}</style><clipPath id="a"><circle class="a" cx="11.5" cy="11.5" r="11.5"/></clipPath></defs><g class="b"><g transform="translate(1.825 0.474)"><path class="a" d="M40.85,21.638a7.133,7.133,0,0,0-5.215-3.857,1.849,1.849,0,0,0-1.175.237,6.17,6.17,0,0,1-7-.018,1.588,1.588,0,0,0-1.238-.238,7.243,7.243,0,0,0-5.207,3.956.831.831,0,0,0,.051.936,11.63,11.63,0,0,0,19.723,0A.871.871,0,0,0,40.85,21.638Z" transform="translate(-20.894 -5.577)"/><path class="a" d="M31.473,15.4a5.845,5.845,0,1,0-5.724-5.975A5.855,5.855,0,0,0,31.473,15.4Z" transform="translate(-21.54 -3.713)"/></g></g></svg>