<svg xmlns="http://www.w3.org/2000/svg" xmlns:xlink="http://www.w3.org/1999/xlink" width="17" height="17" viewBox="0 0 17 17"><defs><style>.a{fill:#95ee9d;}.b{clip-path:url(#a);}</style><clipPath id="a"><circle class="a" cx="8.5" cy="8.5" r="8.5" transform="translate(1284 20)"/></clipPath></defs><g class="b" transform="translate(-1284 -20)"><g transform="translate(1284.929 20)"><path class="a" d="M36.023,20.691a5.408,5.408,0,0,0-3.954-2.924,1.4,1.4,0,0,0-.891.18,4.677,4.677,0,0,1-5.308-.014,1.2,1.2,0,0,0-.938-.181,5.492,5.492,0,0,0-3.948,3,.63.63,0,0,0,.039.709,8.817,8.817,0,0,0,14.953,0A.661.661,0,0,0,36.023,20.691Z" transform="translate(-20.894 -8.515)"/><path class="a" d="M30.088,12.574a4.431,4.431,0,1,0-4.34-4.53A4.439,4.439,0,0,0,30.088,12.574Z" transform="translate(-22.557 -3.713)"/></g></g></svg>