<svg xmlns="http://www.w3.org/2000/svg" width="20.615" height="20.599" viewBox="0 0 20.615 20.599"><defs><style>.a{fill:#afbbc4;}</style></defs><g transform="translate(0)"><path class="a" d="M383.384,59.183c-.979,0-1.125-.105-1.467-1.047-.072-.2-.158-.39-.218-.591a2.316,2.316,0,0,0-3.3-1.313c-.247.141-.512.25-.77.373a1.226,1.226,0,0,1-.288.126c-.829.149-1.116-.59-1.59-1a.808.808,0,0,1-.126-1,15.532,15.532,0,0,0,.639-1.581,2.244,2.244,0,0,0-1.039-2.342,14.152,14.152,0,0,0-1.424-.556.963.963,0,0,1-.7-.943c0-.12-.005-.241-.006-.361-.005-1.108.06-1.237,1.129-1.582,1.052-.339,1.914-.856,2.047-2.06a3.24,3.24,0,0,0-.157-1.216,8.377,8.377,0,0,0-.5-1.106.808.808,0,0,1,.165-.991c1.144-1.126.993-1.312,2.539-.516a2.256,2.256,0,0,0,2.612-.194,3.133,3.133,0,0,0,.724-.993,9.889,9.889,0,0,0,.406-1.1.842.842,0,0,1,.818-.6c1.6-.022,1.662-.138,2.14,1.4a2.3,2.3,0,0,0,3.083,1.632,10.777,10.777,0,0,0,1.147-.521.861.861,0,0,1,1.072.171l.064.064c.936.956,1.237.907.435,2.411a2.408,2.408,0,0,0,.049,2.518,2.332,2.332,0,0,0,1.2.9c.328.146.678.242,1.014.371a.884.884,0,0,1,.607.86c.065,1.553.061,1.611-1.409,2.094a2.365,2.365,0,0,0-1.782,2.084,2.527,2.527,0,0,0,.168,1.04,11.052,11.052,0,0,0,.5,1.106A.873.873,0,0,1,391,55.8c-1.178,1.181-1.031,1.221-2.51.48a2.316,2.316,0,0,0-2.545.136,2.259,2.259,0,0,0-.627.681,5.675,5.675,0,0,0-.4,1C384.562,59.081,384.422,59.184,383.384,59.183Zm5.16-10.319a5.148,5.148,0,0,0-10.3.019,5.148,5.148,0,1,0,10.3-.019Z" transform="translate(-373.097 -38.585)"/><path class="a" d="M459.189,121.459a3.08,3.08,0,1,1-3.081-3.087A3.075,3.075,0,0,1,459.189,121.459Z" transform="translate(-445.807 -111.162)"/></g></svg>