<svg xmlns="http://www.w3.org/2000/svg" width="14.947" height="14.913" viewBox="0 0 14.947 14.913"><defs><style>.a{fill:#b2a2d8;}</style></defs><g transform="translate(-2280.441 187.331)"><path class="a" d="M2293.23-185.182c.469-.47.925-.932,1.389-1.387.155-.152.306-.389.557-.289.267.106.207.387.207.614q0,1.953,0,3.906c0,.435-.16.595-.6.6q-2.012,0-4.023,0a1.115,1.115,0,0,1-.232-.014c-.3-.064-.382-.273-.191-.512a6.727,6.727,0,0,1,.5-.527c.349-.351.7-.7,1.071-1.068a5.4,5.4,0,0,0-1.887-1.2,5.6,5.6,0,0,0-7.631,4.244,5.63,5.63,0,0,0,4.4,6.428,5.57,5.57,0,0,0,6.478-3.842.93.93,0,0,1,.887-.708.881.881,0,0,1,.882.627,1.2,1.2,0,0,1-.01.65,7.163,7.163,0,0,1-5.874,5.133,7.424,7.424,0,0,1-8.569-5.9,7.489,7.489,0,0,1,6.057-8.8,7.573,7.573,0,0,1,6.476,1.962C2293.147-185.245,2293.171-185.229,2293.23-185.182Z" transform="translate(0 0)"/><path class="a" d="M2378.561-104.678c.592,0,1.172,0,1.753,0a.941.941,0,0,1,1.021.919.942.942,0,0,1-1.026.945q-1.31,0-2.621,0a.933.933,0,0,1-1.017-1.01q0-1.325,0-2.65a.936.936,0,0,1,.937-1,.939.939,0,0,1,.926,1.014c0,.563,0,1.126,0,1.689A.691.691,0,0,0,2378.561-104.678Z" transform="translate(-90.617 -75.196)"/></g></svg>